HIERARCHY
ROOT Hips
{
    OFFSET 0.000000 0.000000 0.000000
    CHANNELS 6 Xposition Yposition Zposition Zrotation Xrotation Yrotation
        JOINT Chest
        {
            OFFSET -0.000000 31.780966 -0.000000
            CHANNELS 3 Zrotation Xrotation Yrotation
            JOINT Neck
            {
                OFFSET -0.000000 23.880144 0.000000
                CHANNELS 3 Zrotation Xrotation Yrotation
                JOINT Head
                {
                    OFFSET -0.000000 10.511110 0.000000
                    CHANNELS 3 Zrotation Xrotation Yrotation
                    End Site
                    {
                        OFFSET -0.000000 16.244448 0.000000
                    }
                }
            }
            JOINT LeftCollar
            {
                OFFSET -0.000000 23.880144 0.000000
                CHANNELS 3 Zrotation Xrotation Yrotation
                JOINT LeftShoulder
                {
                    OFFSET 19.111111 -0.000000 0.000000
                    CHANNELS 3 Zrotation Xrotation Yrotation
                    JOINT LeftElbow
                    {
                        OFFSET 21.456259 0.000000 0.000000
                        CHANNELS 3 Zrotation Xrotation Yrotation
                        JOINT LeftWrist
                        {
                            OFFSET 25.693237 0.000000 0.000000
                            CHANNELS 3 Zrotation Xrotation Yrotation
                            End Site
                            {
                                OFFSET 0.000000 -14.333333 0.000000
                            }
                        }
                    }
                }
            }
            JOINT RightCollar
            {
                OFFSET -0.000000 23.880144 0.000000
                CHANNELS 3 Zrotation Xrotation Yrotation
                JOINT RightShoulder
                {
                    OFFSET -19.111111 0.000000 0.000000
                    CHANNELS 3 Zrotation Xrotation Yrotation
                    JOINT RightElbow
                    {
                        OFFSET -21.456259 0.000000 0.000000
                        CHANNELS 3 Zrotation Xrotation Yrotation
                        JOINT RightWrist
                        {
                            OFFSET -25.693237 0.000000 0.000000
                            CHANNELS 3 Zrotation Xrotation Yrotation
                            End Site
                            {
                                OFFSET -0.000000 -14.333333 0.000000
                            }
                        }
                    }
                }
            }
        }
    JOINT LeftHip
    {
        OFFSET 11.466667 0.000000 0.000000
        CHANNELS 3 Zrotation Xrotation Yrotation
        JOINT LeftKnee
        {
            OFFSET -0.000000 -37.225342 0.000000
            CHANNELS 3 Zrotation Xrotation Yrotation
            JOINT LeftAnkle
            {
                OFFSET -0.000000 -35.678333 0.000000
                CHANNELS 3 Zrotation Xrotation Yrotation
                End Site
                {
                    OFFSET -0.000000 -4.777778 16.244448
                }
            }
        }
    }
    JOINT RightHip
    {
        OFFSET -11.466667 0.000000 0.000000
        CHANNELS 3 Zrotation Xrotation Yrotation
        JOINT RightKnee
        {
            OFFSET -0.000000 -37.225342 0.000000
            CHANNELS 3 Zrotation Xrotation Yrotation
            JOINT RightAnkle
            {
                OFFSET -0.000000 -35.678333 0.000000
                CHANNELS 3 Zrotation Xrotation Yrotation
                End Site
                {
                    OFFSET -0.000000 -4.777778 16.244448
                }
            }
        }
    }
}
MOTION
Frames:    16
Frame Time:    0.010000
44.400196    82.362015    -23.305389    1.110093    -3.357884    -50.610191    -11.510509    6.287173    19.456228    8.746092    0.871574    -7.365103    6.733845    23.477215    -8.699292    -11.122204    -1.563747    17.531620    -25.891859    44.991886    -1.035871    -5.171418    4.310074    -80.200897    124.371498    -31.300953    -25.053495    17.650448    -0.285858    -2.192580    23.080050    41.137016    48.174927    5.106955    5.421600    90.274231    -97.746750    -2.569370    8.897202    2.453343    -22.585270    -3.007490    -23.247831    47.612507    25.062435    -5.959672    -16.916094    9.286387    1.106360    -8.852768    4.573754    -0.521112    41.316761    -2.148490    -2.795902    -15.163185    -18.337025    
43.395248    82.793518    -22.942791    0.867019    -3.509064    -50.204372    -11.623955    6.245492    19.244356    8.801481    1.330426    -7.280406    6.881557    23.166756    -8.589689    -10.596224    -1.539721    17.887856    -25.785225    45.909370    -0.869685    -5.057821    4.185908    -80.325920    124.734657    -30.958189    -25.039743    17.728331    -0.363209    -2.613103    24.118099    41.267147    45.536884    5.513292    5.835318    89.204765    -98.054291    -3.481252    9.564534    1.468185    -22.377911    -3.420409    -21.173960    43.994823    21.983923    -4.906382    -17.398561    9.794594    0.991184    -8.316598    4.420715    0.386156    41.689445    -3.410057    -1.890051    -13.680115    -17.560812    
42.413425    83.218575    -22.572401    0.559106    -3.605819    -49.737816    -11.498139    6.237488    18.918900    8.722834    1.903708    -7.167668    7.032177    22.789633    -8.441866    -10.184122    -1.523434    18.139521    -26.011505    46.754417    -0.476841    -4.942797    4.088993    -80.431076    125.245308    -30.453995    -24.823339    17.785845    -0.428653    -2.984436    25.284592    41.245792    42.799122    6.051669    6.355205    87.944229    -98.386292    -4.496643    10.548415    0.418061    -22.047300    -3.866843    -18.805744    40.213963    19.268520    -3.860383    -17.654339    10.029589    0.862355    -8.078367    4.551585    1.782161    42.479633    -5.417910    -0.619757    -12.024996    -16.583277    
41.460735    83.618752    -22.193817    0.178262    -3.666745    -49.267246    -11.172585    6.296020    18.519432    8.525064    2.540577    -7.018781    7.165374    22.366135    -8.248393    -9.877073    -1.505677    18.310585    -26.549257    47.488976    0.116639    -4.853329    4.035319    -80.514709    125.892387    -29.777554    -24.397963    17.818266    -0.478959    -3.287971    26.568501    41.036472    40.002106    6.713112    6.938600    86.513245    -98.658836    -5.582017    11.870093    -0.670302    -21.595158    -4.253531    -16.247519    36.389019    16.944311    -2.895303    -17.725567    9.954803    0.685145    -8.177848    4.894368    3.676242    43.732792    -8.046050    0.973449    -10.213101    -15.490569    
40.540428    83.974121    -21.805519    -0.281514    -3.717608    -48.847069    -10.691316    6.454018    18.086300    8.226740    3.189196    -6.827013    7.262233    21.915720    -8.006967    -9.649307    -1.505228    18.426479    -27.383951    48.119133    0.878873    -4.766888    3.983902    -80.582024    126.593872    -28.933878    -23.777485    17.816954    -0.523193    -3.508162    27.948299    40.629196    37.187756    7.466573    7.530825    84.948021    -98.799149    -6.700954    13.508426    -1.765357    -21.028503    -4.481481    -13.603644    32.651920    14.925939    -2.067428    -17.654858    9.597194    0.423920    -8.625504    5.350366    6.065864    45.457375    -11.140655    2.859553    -8.310131    -14.421529    
39.653160    84.264168    -21.405256    -0.822710    -3.788602    -48.522152    -10.100042    6.741073    17.653910    7.845980    3.799228    -6.589953    7.309578    21.459314    -7.718078    -9.479975    -1.507682    18.512526    -28.471771    48.636185    1.764490    -4.709905    3.960944    -80.639076    127.377533    -27.925547    -22.949135    17.773531    -0.548514    -3.635452    29.381456    40.014072    34.408436    8.287463    8.113323    83.293648    -98.794212    -7.812233    15.383121    -2.835841    -20.361895    -4.470170    -10.982648    29.139330    13.054095    -1.419310    -17.471321    9.035912    0.047068    -9.401180    5.808926    8.936607    47.623520    -14.557590    5.047408    -6.448976    -13.555299    
38.797535    84.469208    -20.990381    -1.442362    -3.908952    -48.324490    -9.444295    7.175916    17.249117    7.402814    4.324720    -6.308866    7.299043    21.021820    -7.387298    -9.341316    -1.512273    18.593435    -29.776714    49.064663    2.720381    -4.646939    3.923750    -80.694748    128.139130    -26.791260    -21.948896    17.680986    -0.570639    -3.670111    30.815941    39.234035    31.720114    9.108266    8.599757    81.613091    -98.572479    -8.875881    17.436502    -3.854747    -19.617340    -4.184156    -8.494575    25.982220    11.145048    -0.976978    -17.182447    8.387050    -0.468835    -10.460886    6.165690    12.260990    50.165836    -18.193296    7.581477    -4.815361    -13.076074    
37.970631    84.571800    -20.558384    -2.130500    -4.100503    -48.274376    -8.766077    7.759426    16.893700    6.920383    4.728035    -5.988836    7.223908    20.629984    -7.021752    -9.210932    -1.514984    18.692921    -31.249657    49.438469    3.695198    -4.574441    3.849064    -80.755959    128.877899    -25.563156    -20.779699    17.542580    -0.561819    -3.623280    32.185238    38.307503    29.177160    9.903504    9.010777    79.955292    -98.204376    -9.860046    19.526283    -4.801652    -18.823154    -3.645716    -6.235982    23.299099    9.038456    -0.742071    -16.773788    7.782892    -1.135624    -11.749103    6.339946    15.995290    52.987675    -22.001471    10.506112    -3.607651    -13.112744    
37.168247    84.558189    -20.107273    -2.871332    -4.374029    -48.382317    -8.101531    8.471642    16.606220    6.425632    4.986991    -5.638029    7.078935    20.308819    -6.631310    -9.077274    -1.505791    18.826477    -32.826385    49.785625    4.639173    -4.475736    3.735986    -80.830276    129.552399    -24.287697    -19.472471    17.371256    -0.506809    -3.517321    33.417366    37.283516    26.836166    10.624907    9.304416    78.375511    -97.691597    -10.739188    21.570063    -5.663352    -18.009455    -2.931221    -4.273672    21.188030    6.635496    -0.681760    -16.212650    7.353083    -1.951946    -13.208716    6.285096    20.074045    55.967159    -25.988951    13.807894    -2.988401    -13.678837    
36.385353    84.419487    -19.635584    -3.645343    -4.729697    -48.649940    -7.480313    9.276283    16.402002    5.944342    5.096575    -5.266969    6.862195    20.079458    -6.222052    -8.932324    -1.497962    19.003307    -34.451611    50.145744    5.522313    -4.320814    3.562287    -80.925652    130.132935    -23.007849    -18.056253    17.183620    -0.529830    -3.378527    34.486530    36.344093    24.680285    11.109859    9.303781    76.982849    -96.913101    -11.470370    23.526281    -6.434388    -17.203770    -2.156712    -2.639071    19.716965    3.925361    -0.720963    -15.452614    7.211441    -2.906282    -14.787316    5.991395    24.405293    58.966003    -30.187935    17.351843    -3.038212    -14.648204    
35.617031    84.152763    -19.142227    -4.431307    -5.160170    -49.069748    -6.925990    10.127878    16.290985    5.499593    5.069763    -4.884617    6.576931    19.952536    -5.803501    -8.786965    -1.483876    19.216957    -36.045452    50.516197    6.322463    -4.135787    3.384210    -81.046013    130.675903    -21.755138    -16.551256    17.018745    -0.520302    -3.236771    35.334896    35.414650    22.708744    11.518554    9.341209    75.708710    -96.300797    -12.078696    25.138693    -7.117552    -16.430742    -1.452622    -1.333500    18.917419    0.993067    -0.743629    -14.445313    7.438787    -3.982367    -16.440336    5.480989    28.861246    61.842312    -34.609772    20.854389    -3.718943    -15.788113    
34.859219    83.761803    -18.626350    -5.208248    -5.656294    -49.624527    -6.457888    10.980854    16.274326    5.109573    4.936666    -4.501132    6.228713    19.922920    -5.379783    -8.654884    -1.479481    19.449566    -37.550472    50.893044    7.039438    -3.933569    3.209229    -81.196648    131.163162    -20.582932    -15.025995    16.912697    -0.480098    -3.118389    35.914551    34.542282    20.947786    11.812012    9.296403    74.600945    -95.725555    -12.552715    26.499140    -7.724123    -15.714475    -0.932392    -0.341861    18.787603    -1.987487    -0.609682    -13.163725    8.047415    -5.165730    -18.129887    4.796686    33.259636    64.463623    -39.192093    23.938534    -4.864867    -16.847591    
34.109337    83.257446    -18.087536    -5.954811    -6.212101    -50.287933    -6.093291    11.796544    16.343702    4.786828    4.739181    -4.122019    5.823966    19.968185    -4.954272    -8.562154    -1.488529    19.675549    -38.898632    51.240341    7.676240    -3.766391    3.097270    -81.376328    131.651993    -19.528467    -13.547473    16.896894    -0.439626    -3.042988    36.218334    33.766930    19.363676    11.981761    9.176947    73.669502    -95.219078    -12.898807    27.583088    -8.272949    -15.082223    -0.674289    0.347240    19.301138    -4.766490    -0.184195    -11.626018    8.948541    -6.449686    -19.823917    3.989066    37.342136    66.719971    -43.756020    26.259905    -6.225780    -17.655561    
33.366180    82.657379    -17.526089    -6.650076    -6.828043    -51.026108    -5.848766    12.548697    16.481869    4.537673    4.522391    -3.753230    5.371051    20.053806    -4.528368    -8.540956    -1.510641    19.863815    -40.021664    51.509209    8.223380    -3.671970    3.094195    -81.578522    132.159225    -18.635784    -12.211626    16.992554    -0.479008    -3.025760    36.269943    33.154392    17.892998    12.005576    8.963305    72.925171    -94.773102    -13.127029    28.386257    -8.786875    -14.561877    -0.723048    0.723052    20.414011    -7.048916    0.632058    -9.906997    9.964886    -7.836914    -21.492672    3.107363    40.770027    68.529030    -47.999378    27.612938    -7.541107    -18.163431    
32.629211    81.985207    -16.942614    -7.280466    -7.513432    -51.795639    -5.736952    13.232417    16.659033    4.361020    4.327926    -3.398413    4.880955    20.138580    -4.104100    -8.632472    -1.514045    19.985973    -40.826351    51.633194    8.628087    -3.740658    3.257465    -81.780304    132.772369    -17.942495    -11.097133    17.218744    -0.446769    -3.077627    36.052299    32.538342    16.554115    12.116133    8.949419    72.209976    -94.648659    -13.305672    28.861254    -9.288652    -14.169495    -1.101439    0.746741    22.065907    -8.554594    1.878278    -8.134377    10.895505    -9.337686    -23.096064    2.192441    43.165516    69.829765    -51.543812    27.954571    -8.601016    -18.419666    
31.897541    81.268784    -16.337729    -7.847240    -8.284558    -52.545494    -5.760284    13.866785    16.833321    4.249173    4.191342    -3.060011    4.365174    20.180569    -3.685119    -8.835369    -1.566826    20.019659    -41.339394    51.647598    8.903570    -3.871071    3.455603    -81.965134    133.262436    -17.528873    -10.327843    17.561464    -0.485395    -3.206546    35.619225    32.058334    15.325755    12.113362    8.784784    71.656670    -94.435120    -13.391037    29.202654    -9.795951    -13.897982    -1.805409    0.363723    24.177988    -9.091558    3.519243    -6.473151    11.590847    -10.962160    -24.573397    1.274529    44.202034    70.568886    -54.035046    27.365065    -9.269637    -18.515190    
